<svg width="44" height="41" viewBox="0 0 44 41" fill="none" xmlns="http://www.w3.org/2000/svg">
<path d="M42.1114 21.001C42.0974 20.8186 42.015 20.6483 41.8808 20.524C41.7465 20.3997 41.5703 20.3306 41.3874 20.3307H30.9688L30.4951 10.8551C30.4858 10.6691 30.4053 10.4937 30.2703 10.3653C30.1353 10.2369 29.9562 10.1653 29.7699 10.1653H24.6872V6.53486C24.6876 5.48931 24.437 4.45895 23.9565 3.53036C23.476 2.60176 22.7796 1.80207 21.9258 1.19848C21.0721 0.594896 20.086 0.205045 19.0503 0.0616932C18.0146 -0.0816589 16.9597 0.0256751 15.9741 0.374676C14.9885 0.0256751 13.9335 -0.0816589 12.8979 0.0616932C11.8622 0.205045 10.8761 0.594896 10.0223 1.19848C9.16859 1.80207 8.47221 2.60176 7.9917 3.53036C7.51118 4.45895 7.26058 5.48931 7.26095 6.53486V10.1653H2.17828C1.992 10.1653 1.81284 10.2369 1.67786 10.3653C1.54288 10.4937 1.46241 10.6691 1.4531 10.8551L0.000908229 39.8989C-0.00401223 39.9972 0.0110979 40.0955 0.0453209 40.1877C0.0795439 40.28 0.132165 40.3643 0.199989 40.4356C0.267813 40.5069 0.349424 40.5637 0.439864 40.6025C0.530304 40.6413 0.627686 40.6613 0.726095 40.6613H42.8396C42.9396 40.6613 43.0386 40.6406 43.1303 40.6006C43.222 40.5605 43.3044 40.502 43.3724 40.4286C43.4404 40.3552 43.4924 40.2685 43.5253 40.174C43.5583 40.0795 43.5713 39.9792 43.5636 39.8795L42.1114 21.001ZM39.9352 36.8876L41.4829 39.2091H38.3879L39.9352 36.8876ZM41.9026 37.2206L40.6397 35.3264L39.2854 21.7828H40.715L41.9026 37.2206ZM37.8259 21.7828L39.1873 35.3922L37.5935 37.7823L36.3627 21.7828H37.8259ZM29.5148 20.3307H28.1482L27.6356 11.6175H29.0787L29.5148 20.3307ZM26.1809 11.6175L26.6935 20.3307H25.1596L24.724 11.6175H26.1809ZM18.1524 1.4522C19.4999 1.45374 20.7918 1.98972 21.7447 2.94258C22.6975 3.89543 23.2335 5.18733 23.235 6.53486V10.1653H20.3306V6.53486C20.3307 5.56133 20.1128 4.60014 19.693 3.72175C19.2733 2.84336 18.6623 2.07004 17.9049 1.45846C17.9869 1.45456 18.0693 1.4522 18.1524 1.4522ZM15.9741 1.94359C16.8425 2.35633 17.5762 3.00665 18.0902 3.81922C18.6042 4.63179 18.8775 5.57336 18.8785 6.53486V10.1653H13.0697V6.53486C13.0706 5.57336 13.3439 4.63179 13.858 3.81922C14.372 3.00665 15.1057 2.35633 15.9741 1.94359ZM8.71314 6.53486C8.71467 5.18733 9.25066 3.89543 10.2035 2.94258C11.1564 1.98972 12.4483 1.45374 13.7958 1.4522C13.8788 1.4522 13.9613 1.45456 14.0433 1.45846C13.2858 2.07002 12.6748 2.84335 12.2551 3.72174C11.8353 4.60014 11.6175 5.56133 11.6175 6.53486V10.1653H8.71314V6.53486ZM17.48 39.2091H1.4894L2.86898 11.6175H7.26095V16.3116L5.40596 17.5483C5.30651 17.6146 5.22497 17.7044 5.16857 17.8098C5.11217 17.9152 5.08266 18.0328 5.08266 18.1524V23.9611C5.08266 24.1537 5.15916 24.3384 5.29533 24.4746C5.4315 24.6107 5.61619 24.6872 5.80876 24.6872H10.1653C10.3579 24.6872 10.5426 24.6107 10.6788 24.4746C10.8149 24.3384 10.8914 24.1537 10.8914 23.9611V18.1524C10.8914 18.0328 10.8619 17.9152 10.8055 17.8098C10.7491 17.7044 10.6676 17.6146 10.5681 17.5483L8.71314 16.3116V11.6175H18.8785V13.7958C18.8785 13.9884 18.955 14.1731 19.0911 14.3092C19.2273 14.4454 19.412 14.5219 19.6046 14.5219C19.7971 14.5219 19.9818 14.4454 20.118 14.3092C20.2542 14.1731 20.3306 13.9884 20.3306 13.7958V11.6175H23.2704L23.7061 20.3307H19.6046C19.4216 20.3306 19.2454 20.3997 19.1112 20.524C18.977 20.6483 18.8946 20.8186 18.8805 21.001L17.48 39.2091ZM7.98704 17.5729L9.43923 18.5409V23.235H6.53485V18.5409L7.98704 17.5729ZM20.2769 21.7828H34.9063L36.2467 39.2091H18.9365L20.2769 21.7828Z" fill="#393939"/>
<path d="M31.2224 24.6873C31.0298 24.6873 30.8451 24.7638 30.709 24.8999C30.5728 25.0361 30.4963 25.2208 30.4963 25.4134V31.2221C30.4956 31.7996 30.2659 32.3533 29.8576 32.7617C29.4492 33.17 28.8955 33.3997 28.318 33.4004H26.8658C26.2883 33.3997 25.7346 33.17 25.3263 32.7617C24.9179 32.3533 24.6882 31.7996 24.6875 31.2221V25.4134C24.6875 25.2208 24.611 25.0361 24.4749 24.8999C24.3387 24.7638 24.154 24.6873 23.9614 24.6873C23.7689 24.6873 23.5842 24.7638 23.448 24.8999C23.3119 25.0361 23.2354 25.2208 23.2354 25.4134V31.2221C23.2364 32.1846 23.6193 33.1074 24.2999 33.788C24.9805 34.4687 25.9033 34.8515 26.8658 34.8526H28.318C29.2805 34.8515 30.2033 34.4687 30.884 33.788C31.5646 33.1074 31.9474 32.1846 31.9485 31.2221V25.4134C31.9485 25.2208 31.872 25.0361 31.7358 24.8999C31.5996 24.7638 31.415 24.6873 31.2224 24.6873Z" fill="#393939"/>
</svg>
