<svg width="48" height="41" viewBox="0 0 48 41" fill="none" xmlns="http://www.w3.org/2000/svg">
<path d="M43.8833 22.8976L42.6613 18.0098C42.9954 17.9388 43.246 17.6425 43.246 17.2874V16.4993C43.246 14.7882 41.854 13.3962 40.143 13.3962H34.5772V11.7708C34.5772 10.9288 33.8923 10.2439 33.0503 10.2439H22.7011L28.9902 7.72822C29.3691 7.57671 29.5533 7.14669 29.4018 6.76781C29.2503 6.38903 28.8205 6.20462 28.4414 6.35622L23.292 8.41593C24.8611 7.40916 26.4136 6.30111 27.0046 5.52622C28.1552 4.01763 27.8638 1.85424 26.3552 0.703611C24.8466 -0.447113 22.6832 -0.155607 21.5326 1.35298C20.6919 2.45541 19.5827 5.55304 18.8647 7.73587C18.1468 5.55322 17.0375 2.45541 16.1969 1.35298C15.0463 -0.155607 12.8828 -0.446928 11.3742 0.703611C9.86566 1.85415 9.57434 4.01754 10.7249 5.52622C11.3159 6.3012 12.8683 7.40916 14.4375 8.41593L9.28809 6.35622C8.90903 6.20443 8.47919 6.38894 8.32768 6.76781C8.17607 7.14669 8.36039 7.57671 8.73927 7.72822L15.0283 10.2439H4.6792C3.83722 10.2439 3.15228 10.9288 3.15228 11.7708V25.1682C3.15228 25.5762 3.48304 25.9071 3.89113 25.9071C4.29913 25.9071 4.62999 25.5763 4.62999 25.1682V11.7708C4.62999 11.7436 4.65202 11.7216 4.6792 11.7216H33.0502C33.0774 11.7216 33.0994 11.7436 33.0994 11.7708V25.1684C33.0994 25.5764 33.4302 25.9073 33.8382 25.9073C34.2462 25.9073 34.5771 25.5765 34.5771 25.1684V24.3309H43.2924C43.2932 24.3309 43.2939 24.331 43.2947 24.331C43.2955 24.331 43.2963 24.331 43.2971 24.331C44.3695 24.3318 45.28 25.0357 45.5927 26.0056H43.2953C42.8873 26.0056 42.5564 26.3364 42.5564 26.7445V28.3206C42.5564 29.5971 43.5949 30.6356 44.8714 30.6356H45.7088V33.8864H43.7769C43.1423 32.0541 41.4003 30.734 39.3548 30.734C37.3093 30.734 35.5673 32.054 34.9327 33.8864H34.577V28.3205C34.577 27.9125 34.2462 27.5817 33.8382 27.5817C33.4302 27.5817 33.0993 27.9124 33.0993 28.3205V33.8863H17.7702C17.1356 32.054 15.3937 30.7339 13.3482 30.7339C11.3026 30.7339 9.56061 32.0539 8.92608 33.8863H4.6792C4.65202 33.8863 4.62999 33.8643 4.62999 33.8371V32.2117H7.83157C8.23957 32.2117 8.57043 31.8809 8.57043 31.4728C8.57043 31.0647 8.23966 30.7339 7.83157 30.7339H0.738856C0.330858 30.7339 0 31.0647 0 31.4728C0 31.8809 0.330766 32.2117 0.738856 32.2117H3.15237V33.8371C3.15237 34.6791 3.83731 35.364 4.6793 35.364H8.67024C8.67006 35.3804 8.66895 35.3967 8.66895 35.4132C8.66895 37.9933 10.7681 40.0924 13.3482 40.0924C15.9282 40.0924 18.0274 37.9933 18.0274 35.4132C18.0274 35.3966 18.0263 35.3804 18.0261 35.364H34.6768C34.6766 35.3804 34.6755 35.3967 34.6755 35.4132C34.6755 37.9933 36.7747 40.0924 39.3547 40.0924C41.9348 40.0924 44.0339 37.9933 44.0339 35.4132C44.0339 35.3966 44.0328 35.3804 44.0326 35.364H46.4475C46.8555 35.364 47.1864 35.0333 47.1864 34.6252V26.7444C47.1865 24.7985 45.7509 23.1818 43.8833 22.8976ZM15.9347 7.60998C13.0202 5.79892 12.1558 4.96569 11.8998 4.63004C11.2434 3.76935 11.4096 2.53504 12.2704 1.87857C12.6252 1.60799 13.0435 1.47721 13.4587 1.47721C14.0505 1.47721 14.6361 1.74319 15.022 2.24915C15.7367 3.18625 16.856 6.34028 17.5949 8.61306C17.0963 8.31944 16.523 7.97577 15.9347 7.60998ZM20.1347 8.61297C20.8737 6.34028 21.993 3.18634 22.7076 2.24906C23.364 1.38837 24.5984 1.2222 25.459 1.87857C26.3198 2.53504 26.486 3.76935 25.8296 4.63004C25.5737 4.9656 24.7092 5.79892 21.795 7.60989C21.2067 7.97558 20.6335 8.31934 20.1347 8.61297ZM34.5772 14.8738H40.143C41.0392 14.8738 41.7684 15.6029 41.7684 16.4992V16.5484H34.5772V14.8738ZM34.5772 22.8532V18.0261H41.1423L42.349 22.8532H34.5772ZM13.3482 38.6148C11.5828 38.6148 10.1466 37.1786 10.1466 35.4132C10.1466 33.6479 11.5828 32.2117 13.3482 32.2117C15.1135 32.2117 16.5497 33.6479 16.5497 35.4132C16.5497 37.1786 15.1135 38.6148 13.3482 38.6148ZM39.3549 38.6148C37.5896 38.6148 36.1533 37.1786 36.1533 35.4132C36.1533 33.6479 37.5896 32.2117 39.3549 32.2117C41.1203 32.2117 42.5565 33.6479 42.5565 35.4132C42.5565 37.1786 41.1203 38.6148 39.3549 38.6148ZM45.7089 29.1578H44.8715C44.4098 29.1578 44.0341 28.7822 44.0341 28.3204V27.483H45.7088V29.1578H45.7089Z" fill="#393939"/>
<path d="M13.3482 33.8862C12.5062 33.8862 11.8213 34.5712 11.8213 35.4132C11.8213 36.2551 12.5062 36.9401 13.3482 36.9401C14.1902 36.9401 14.8751 36.2551 14.8751 35.4132C14.8751 34.5712 14.1902 33.8862 13.3482 33.8862Z" fill="#393939"/>
<path d="M39.3551 33.8865C38.5131 33.8865 37.8281 34.5714 37.8281 35.4134C37.8281 36.2554 38.5131 36.9403 39.3551 36.9403C40.197 36.9403 40.882 36.2554 40.882 35.4134C40.882 34.5714 40.197 33.8865 39.3551 33.8865Z" fill="#393939"/>
<path d="M30.6861 30.7336H19.6529C19.2449 30.7336 18.9141 31.0644 18.9141 31.4725C18.9141 31.8806 19.2448 32.2114 19.6529 32.2114H30.6861C31.0941 32.2114 31.4249 31.8806 31.4249 31.4725C31.4249 31.0644 31.0942 30.7336 30.6861 30.7336Z" fill="#393939"/>
<path d="M11.772 27.5815H2.31503C1.90703 27.5815 1.57617 27.9123 1.57617 28.3204C1.57617 28.7285 1.90694 29.0593 2.31503 29.0593H11.772C12.18 29.0593 12.5109 28.7285 12.5109 28.3204C12.5109 27.9123 12.18 27.5815 11.772 27.5815Z" fill="#393939"/>
<path d="M11.7721 16.5483H8.61971C8.21172 16.5483 7.88086 16.8791 7.88086 17.2872V23.5918C7.88086 23.9998 8.21163 24.3307 8.61971 24.3307C9.0278 24.3307 9.35857 23.9999 9.35857 23.5918V21.1783H10.984C11.392 21.1783 11.7229 20.8476 11.7229 20.4395C11.7229 20.0314 11.3921 19.7006 10.984 19.7006H9.35857V18.0261H11.7721C12.1801 18.0261 12.5109 17.6953 12.5109 17.2872C12.5108 16.8792 12.1801 16.5483 11.7721 16.5483Z" fill="#393939"/>
<path d="M17.5865 21.5245C18.3259 21.0402 18.8156 20.205 18.8156 19.2572C18.8156 17.7633 17.6004 16.5481 16.1065 16.5481H14.1363C13.7283 16.5481 13.3975 16.8789 13.3975 17.287V23.5916C13.3975 23.9996 13.7282 24.3305 14.1363 24.3305C14.5444 24.3305 14.8752 23.9997 14.8752 23.5916V21.9662H16.1052L17.4619 24.0013C17.6043 24.2149 17.8385 24.3305 18.0773 24.3305C18.2182 24.3305 18.3605 24.2903 18.4864 24.2062C18.826 23.98 18.9177 23.5212 18.6913 23.1818L17.5865 21.5245ZM16.1065 20.4885H14.8752V18.0258H16.1065C16.7856 18.0258 17.3379 18.5781 17.3379 19.2572C17.3379 19.9362 16.7856 20.4885 16.1065 20.4885Z" fill="#393939"/>
<path d="M23.5924 22.8528H21.1789V21.1757C21.1952 21.1768 21.2115 21.1782 21.2281 21.1782H22.8042C23.2122 21.1782 23.5431 20.8474 23.5431 20.4393C23.5431 20.0312 23.2123 19.7005 22.8042 19.7005H21.2281C21.2114 19.7005 21.1952 19.7018 21.1789 19.703V18.0258H23.5924C24.0004 18.0258 24.3313 17.695 24.3313 17.287C24.3313 16.879 24.0005 16.5481 23.5924 16.5481H20.44C20.032 16.5481 19.7012 16.8789 19.7012 17.287V23.5916C19.7012 23.9996 20.0319 24.3305 20.44 24.3305H23.5924C24.0004 24.3305 24.3313 23.9997 24.3313 23.5916C24.3313 23.1835 24.0004 22.8528 23.5924 22.8528Z" fill="#393939"/>
<path d="M29.11 22.8531H26.6965V21.1784H27.5338C27.9418 21.1784 28.2727 20.8477 28.2727 20.4396C28.2727 20.0315 27.9419 19.7007 27.5338 19.7007H26.6965V18.0261H29.11C29.518 18.0261 29.8488 17.6953 29.8488 17.2872C29.8488 16.8792 29.5181 16.5483 29.11 16.5483H25.9576C25.5496 16.5483 25.2188 16.8791 25.2188 17.2872V23.5918C25.2188 23.9998 25.5495 24.3307 25.9576 24.3307H29.11C29.518 24.3307 29.8488 23.9999 29.8488 23.5918C29.8488 23.1838 29.518 22.8531 29.11 22.8531Z" fill="#393939"/>
</svg>
