<svg width="37" height="48" viewBox="0 0 37 48" fill="none" xmlns="http://www.w3.org/2000/svg">
<path d="M36.216 39.2878C36.1105 32.8368 29.5148 30.9308 24.6986 29.5391C24.1367 29.3768 23.5963 29.2206 23.0899 29.0646V26.4034C24.0745 25.7862 24.9373 24.992 25.6333 24.0655H28.567C30.0026 24.0655 31.1707 22.8975 31.1707 21.4619V18.3101C31.3447 17.9044 31.4414 17.4579 31.4414 16.9891V16.0088C31.4414 15.5405 31.3447 15.0942 31.1707 14.6888V13.0629C31.1707 5.86003 25.3108 0 18.1081 0C10.9067 0 5.04807 5.86003 5.04807 13.063V14.6424C5.04807 14.6548 5.04946 14.6668 5.04992 14.6791C4.87322 15.0872 4.77476 15.5367 4.77476 16.0089V16.9891C4.77476 18.8421 6.28112 20.3497 8.13263 20.3497H8.89879C9.42946 22.8944 10.9917 25.0648 13.1262 26.4029V29.0646C12.6197 29.2206 12.0794 29.3767 11.5175 29.5391C6.70137 30.9308 0.105597 32.8368 9.26593e-05 39.2878C-5.09316e-08 39.2929 0 39.2979 0 39.303V46.5403C0 47.0524 0.415156 47.4674 0.927102 47.4674H3.67577C4.18772 47.4674 4.60288 47.0524 4.60288 46.5403C4.60288 46.0283 4.18772 45.6132 3.67577 45.6132H1.85411V39.3107C1.89314 37.06 2.92705 35.3727 5.10768 34.0011C6.54664 33.096 8.30581 32.4511 10.0399 31.9116L12.2798 36.2758C12.5295 36.7623 13.1687 36.9276 13.623 36.6211L14.6218 35.9474L15.4793 39.1702L14.0101 45.6131H12.0009C11.4889 45.6131 11.0738 46.0282 11.0738 46.5402C11.0738 47.0523 11.4889 47.4673 12.0009 47.4673H35.289C35.801 47.4673 36.2161 47.0523 36.2161 46.5402V39.3029C36.2161 39.2979 36.2161 39.2929 36.216 39.2878ZM24.1839 31.3204C24.245 31.338 24.3071 31.3561 24.3687 31.3739L22.766 34.4995L19.7667 32.477L22.308 30.7629C22.8984 30.9487 23.5262 31.1303 24.1839 31.3204ZM18.1087 33.5954L19.9677 34.849L19.0693 38.2261H17.1468L16.2487 34.85L18.1087 33.5954ZM18.1085 31.3589L14.9803 29.2495V27.2978C15.9594 27.644 17.0118 27.834 18.108 27.834C19.2041 27.834 20.2566 27.6447 21.2356 27.2984V29.2495L18.1085 31.3589ZM25.6611 13.2325C25.6484 13.2245 25.6358 13.2164 25.6231 13.2083C23.7207 11.9973 22.0777 10.9515 19.5034 11.6881C19.4794 11.6949 19.4557 11.7027 19.4324 11.7114C18.8866 11.9164 18.3904 12.1075 17.9103 12.2923C14.9785 13.4208 13.3778 14.0372 10.555 13.9578V13.2154C10.555 9.05046 13.9432 5.66209 18.108 5.66209C22.2727 5.66209 25.661 9.05046 25.661 13.2154V13.2325H25.6611ZM29.3164 21.4619C29.3164 21.8752 28.9803 22.2113 28.567 22.2113H26.7194C26.9803 21.6199 27.1824 20.997 27.3174 20.3496H28.0836C28.5189 20.3496 28.9345 20.2654 29.3165 20.1138V21.4619H29.3164ZM29.5872 16.9891C29.5872 17.8196 28.9127 18.4954 28.0835 18.4954H27.5144C27.5146 18.4724 27.5154 14.5051 27.5154 14.5051H28.0836C28.9127 14.5051 29.5873 15.1796 29.5873 16.0088V16.9891H29.5872ZM8.13263 18.4955C7.30352 18.4955 6.62896 17.8197 6.62896 16.9891V16.0089C6.62896 15.1797 7.30343 14.5052 8.13263 14.5052H8.70085C8.70085 14.5052 8.70159 18.4725 8.70178 18.4955H8.13263ZM8.71819 12.6509H8.13254C7.69912 12.6509 7.28517 12.7343 6.9045 12.8845C7.00027 6.78602 11.9888 1.8542 18.1081 1.8542C24.2291 1.8542 29.219 6.78657 29.3141 12.8855C28.9328 12.7347 28.5178 12.6509 28.0835 12.6509H27.4978C27.2049 7.72536 23.1056 3.80789 18.1081 3.80789C13.1104 3.80789 9.01115 7.72545 8.71819 12.6509ZM10.6108 19.3285C10.6107 19.3276 10.6105 19.3266 10.6104 19.3257C10.5753 19.0306 10.5551 18.731 10.5551 18.4266V15.8119C13.7269 15.8892 15.6191 15.1613 18.5764 14.0228C19.0422 13.8435 19.5237 13.6582 20.0481 13.461C21.7994 12.9721 22.8071 13.6138 24.6274 14.7725C24.9432 14.9736 25.2897 15.194 25.6611 15.4203V18.4266C25.6611 19.8053 25.288 21.0977 24.6402 22.2114H18.1081C17.5961 22.2114 17.181 22.6265 17.181 23.1385C17.181 23.6506 17.5961 24.0656 18.1081 24.0656H23.1259C21.7907 25.2552 20.0327 25.9799 18.1081 25.9799C14.2486 25.9798 11.0581 23.0695 10.6108 19.3285ZM13.4523 34.4996L11.8479 31.3737C11.9093 31.356 11.9712 31.338 12.0322 31.3204C12.6899 31.1303 13.3177 30.9486 13.9083 30.7628L16.4506 32.4772L13.4523 34.4996ZM15.9119 45.6132L17.1736 40.0803H19.0428L20.3064 45.6132H15.9119ZM34.3619 45.6132H22.2084L20.7369 39.1702L21.5947 35.9461L22.5959 36.6212C23.0504 36.9276 23.6896 36.7623 23.9392 36.2756L26.1766 31.9118C27.9106 32.4513 29.6697 33.0961 31.1085 34.0011C33.2891 35.3727 34.3231 37.06 34.3621 39.3107V45.6132H34.3619Z" fill="#393939"/>
<path d="M30.701 40.9775H26.0287C25.5167 40.9775 25.1016 41.3926 25.1016 41.9046C25.1016 42.4167 25.5167 42.8317 26.0287 42.8317H30.701C31.2129 42.8317 31.6281 42.4167 31.6281 41.9046C31.6281 41.3926 31.213 40.9775 30.701 40.9775Z" fill="#393939"/>
<path d="M7.83872 45.6133C7.32678 45.6133 6.91162 46.0283 6.91162 46.5404C6.91162 47.0524 7.32678 47.4675 7.83872 47.4675H7.84132C8.35326 47.4675 8.76702 47.0524 8.76702 46.5404C8.76702 46.0283 8.35066 45.6133 7.83872 45.6133Z" fill="#393939"/>
</svg>
